<svg width="455" height="87" viewBox="0 0 280 54" fill="none" xmlns="http://www.w3.org/2000/svg">
<path d="M40.3026 15.3962C40.3026 5.76146 32.6038 0 21.3067 0H0V53.0853H8.55487V30.8609H21.3067C32.6038 30.8609 40.3026 25.0253 40.3026 15.3962ZM21.3067 23.6619H8.55487V7.20468H21.3067C27.8983 7.20468 31.5739 10.4676 31.5739 15.3962C31.5739 20.3248 27.8983 23.6619 21.3067 23.6619Z" fill="black"/>
<path d="M225.62 14.7117C225.62 4.55213 218.346 0 205.851 0H185.311V53.0853H193.872V29.4234H197.638L214.754 53.0853H225.62L207.306 29.4234C218.178 29.0412 225.62 24.4149 225.62 14.7117ZM206.881 22.5952H193.878V7.20468H206.881C212.784 7.20468 216.724 9.62906 216.724 14.8657C216.724 20.0967 212.784 22.5952 206.881 22.5952Z" fill="black"/>
<path d="M271.445 0V44.5287L267.937 38.7501L246.971 0H233.537V53.0853H242.092V7.90633L245.6 14.3295L266.566 53.0853H280V0H271.445Z" fill="black"/>
<path d="M56.4403 0L35.2173 53.0853H44.2871L46.6817 46.896L61.7509 7.65533V7.66674L61.7573 7.65533H64.0425L64.0554 7.73519L71.5867 27.3013H60.9591L58.2363 34.4889L58.2298 34.506H74.3225L81.5127 53.0853H90.5826L69.3595 0H56.4403Z" fill="black"/>
<path d="M171.735 22.8234H154.754V30.0281H171.735V22.8234Z" fill="black"/>
<path d="M172.591 7.20468V0H82.3237V7.20468H100.978V53.0853H109.54V7.20468H127.924V53.0853H136.479V7.20468" fill="black"/>
<path d="M172.591 45.8806H154.754V53.0853H172.591V45.8806Z" fill="black"/>
</svg>
